<svg width="639" height="588" viewBox="0 0 639 588" fill="none" xmlns="http://www.w3.org/2000/svg">
<g clip-path="url(#clip0_791_258)">
<path d="M615.03 179.46C600.23 144.47 579.04 113.04 552.07 86.07C525.09 59.09 493.67 37.91 458.68 23.11C422.43 7.77 383.94 0 344.28 0C304.62 0 266.14 7.77 229.89 23.1C194.9 37.9 163.47 59.09 136.5 86.06C109.52 113.04 88.3399 144.46 73.5399 179.45C58.2099 215.7 50.4399 254.19 50.4399 293.84C50.4399 333.49 58.2099 371.98 73.5399 408.23C88.3399 443.22 109.53 474.65 136.5 501.62C163.48 528.6 194.9 549.78 229.89 564.58C266.14 579.91 304.63 587.69 344.28 587.69C383.93 587.69 422.42 579.92 458.67 564.58C493.66 549.78 525.09 528.6 552.06 501.62C579.04 474.64 600.22 443.22 615.02 408.23C630.35 371.98 638.12 333.5 638.12 293.84C638.12 254.18 630.35 215.7 615.02 179.45L615.03 179.46ZM556.4 383.44C544.81 410.85 528.21 435.47 507.05 456.62C485.89 477.77 461.28 494.37 433.87 505.97C405.51 517.97 375.37 524.05 344.28 524.05C313.19 524.05 283.04 517.97 254.69 505.97C227.28 494.38 202.66 477.78 181.51 456.62C160.36 435.47 143.76 410.85 132.16 383.44C120.16 355.08 114.08 324.94 114.08 293.85C114.08 262.76 120.16 232.62 132.16 204.26C143.75 176.85 160.35 152.23 181.51 131.08C202.66 109.93 227.28 93.33 254.69 81.73C283.05 69.73 313.19 63.65 344.28 63.65C375.37 63.65 405.51 69.73 433.87 81.73C461.28 93.32 485.9 109.92 507.05 131.08C528.2 152.23 544.8 176.85 556.4 204.26C568.4 232.62 574.48 262.76 574.48 293.85C574.48 324.94 568.4 355.08 556.4 383.44Z" fill="#0B3255"/>
<path d="M243.75 389.21V422.31C243.75 430.75 236.85 437.65 228.41 437.65H15.55C7.10996 437.65 0.209961 430.75 0.209961 422.31V389.21C0.209961 380.78 7.10996 373.88 15.55 373.88H228.41C236.85 373.88 243.75 380.78 243.75 389.21Z" fill="#22A9B2"/>
<path d="M242.59 276.36V309.33C242.59 317.73 235.72 324.61 227.31 324.61H15.28C6.87 324.61 0 317.73 0 309.33V276.36C0 267.96 6.87 261.09 15.28 261.09H227.31C235.72 261.09 242.59 267.96 242.59 276.36Z" fill="#22A9B2"/>
<path d="M243.82 165.14V198.24C243.82 206.67 236.92 213.57 228.48 213.57H15.6C7.16001 213.57 0.26001 206.67 0.26001 198.24V165.14C0.26001 156.71 7.16001 149.81 15.6 149.81H228.48C236.92 149.81 243.82 156.71 243.82 165.14Z" fill="#22A9B2"/>
<path d="M476.04 411.11L476.84 411.98C478.32 413.79 479.2 416.11 479.2 418.63C479.2 424.4 474.57 429.1 468.82 429.2H468.48L411.02 429.45C411.02 429.45 410.95 429.45 410.92 429.45C408.28 429.39 405.88 428.37 404.05 426.71C403.61 426.23 316.97 329.8 315.39 328.06C315.37 328.04 315.35 328.03 315.33 328C315.08 327.73 314.83 327.46 314.58 327.19C314.58 327.19 314.57 327.19 314.57 327.18C313.06 325.35 312.16 323.02 312.16 320.47V320.44L312.34 107.54V106.78C312.55 101.13 317.19 96.6299 322.88 96.6299C325.59 96.6299 328.08 97.6499 329.95 99.3399C329.97 99.3699 330 99.3999 330.03 99.4199L373.81 139.2C375.51 140.75 376.48 142.95 376.48 145.23L375.86 296.04V296.15C375.86 298.52 376.64 300.71 377.96 302.48C377.97 302.51 377.99 302.53 378.01 302.55" fill="#22A9B2"/>
</g>
<defs>
<clipPath id="clip0_791_258">
<rect width="639" height="588" fill="white"/>
</clipPath>
</defs>
</svg>
